HIERARCHY
ROOT base
{
	OFFSET 0.0 0.0 0.0
	CHANNELS 6 Xposition Yposition Zposition Zrotation Yrotation Xrotation
	JOINT root
	{
		OFFSET 0 0 0
		CHANNELS 6 Xposition Yposition Zposition Zrotation Yrotation Xrotation
		JOINT chest
		{
			OFFSET 0 4.72302 0
			CHANNELS 3 Zrotation Yrotation Xrotation
			JOINT neck
			{
				OFFSET 0 4.47788 0
				CHANNELS 3 Zrotation Yrotation Xrotation
				End Site
				{
					OFFSET 0.0 0.0 0.0
				}
			}
			JOINT right_shoulder
			{
				OFFSET -0.481 4.87 3.6622
				CHANNELS 3 Zrotation Yrotation Xrotation
				JOINT right_elbow
				{
					OFFSET 0 -5.49576 0
					CHANNELS 3 Zrotation Yrotation Xrotation
					JOINT right_wrist
					{
						OFFSET 0 -5.17894 0
						CHANNELS 3 Zrotation Yrotation Xrotation
						End Site
						{
							OFFSET 0.0 0.0 0.0
						}
					}
				}
			}
			JOINT left_shoulder
			{
				OFFSET -0.481 4.87 -3.6622
				CHANNELS 3 Zrotation Yrotation Xrotation
				JOINT left_elbow
				{
					OFFSET 0 -5.49576 0
					CHANNELS 3 Zrotation Yrotation Xrotation
					JOINT left_wrist
					{
						OFFSET 0 -5.17894 0
						CHANNELS 3 Zrotation Yrotation Xrotation
						End Site
						{
							OFFSET 0.0 0.0 0.0
						}
					}
				}
			}
		}
		JOINT right_hip
		{
			OFFSET 0 0 1.69774
			CHANNELS 3 Zrotation Yrotation Xrotation
			JOINT right_knee
			{
				OFFSET 0 -8.43092 0
				CHANNELS 3 Zrotation Yrotation Xrotation
				JOINT right_ankle
				{
					OFFSET 0 -8.1974 0
					CHANNELS 3 Zrotation Yrotation Xrotation
					End Site
					{
						OFFSET 0.0 0.0 0.0
					}
				}
			}
		}
		JOINT left_hip
		{
			OFFSET 0 0 -1.69774
			CHANNELS 3 Zrotation Yrotation Xrotation
			JOINT left_knee
			{
				OFFSET 0 -8.43092 0
				CHANNELS 3 Zrotation Yrotation Xrotation
				JOINT left_ankle
				{
					OFFSET 0 -8.1974 0
					CHANNELS 3 Zrotation Yrotation Xrotation
					End Site
					{
						OFFSET 0.0 0.0 0.0
					}
				}
			}
		}
	}
	JOINT red_arrow
	{
		OFFSET 0 0 0
		CHANNELS 3 Zrotation Yrotation Xrotation
		End Site
		{
			OFFSET 0.0 0.0 0.0
		}
	}
	JOINT blue_arrow
	{
		OFFSET 0 0 0
		CHANNELS 3 Zrotation Yrotation Xrotation
		End Site
		{
			OFFSET 0.0 0.0 0.0
		}
	}
}
MOTION
Frames: 17
Frame Time: 0.0333333333333333
0 18.08466 0 0 0 0 0 0 0 0 -90 0 0 0 0 0 0 0 0 0 -90 0 0 0 0 0 0 0 0 90 0 0 0 0 0 0 0 0 0 0 0 0 0 0 0 0 0 0 0 0 0 0 0 0 0 0 0 0 0 0
0.416143482923508 0 0.0380688399076462 0 1.03797497247293 0 0 16.9933313727379 0 -8.56101107941139 4.1993261028698E-15 1.7283697386686 -4.10811540052507 -4.71053665972708 -0.498952104286171 1.53408334091012 -0.0713821428070945 0.148943809929702 -12.9200576980251 6.57974506062126 -2.18440714204422 10.0853198708838 0 0 0 0 0 10.9114270274947 -18.6331503231922 16.82122995629 36.8450524964728 0 0 0 0 0 32.9754004193516 -4.58737163001566 1.61058689690727 -14.5650881220125 0 0 -7.81616644300343 9.19089270820131 2.24081594188133 -1.62771298018649 4.74189182011227 -2.94980991542288 -30.1091916539925 0 0 1.58339931409344 -3.11267769619594 5.4238451486395 0 0 0 0 0 0
1.03828548789024 0 -0.0350986169651151 0 0.962581063243174 0 0 16.9080633401871 0 -10.065931962048 -1.41044342091368 1.66699532939396 -8.22781999978929 -4.75993844175677 -0.445816297403445 -1.79197927989672 -0.52493946677721 -0.553227913780101 -8.43760835177654 5.6974465649106 -2.86951442569288 1.59924172988624 0 0 0 0 0 12.2776363161162 -19.5961869525896 13.7190402034416 38.9386420808651 0 0 0 0 0 33.0319355217762 -4.49685480257892 2.72089319189945 -16.0947807036231 0 0 -8.86694139489086 12.3685333622402 -6.03057289607269 -1.95723695359553 3.54474537064559 -3.13062883766194 -29.9701733987206 0 0 -3.73287483039558 -5.74040154684581 7.17648010546246 0 0 0 0 0 0
1.65485873520374 0 0.0232223527505994 0 0.783620315258704 0 0 16.9631238937378 0 -11.8434369020102 -3.32803432109091 0.492678071071684 -10.7407539223918 -3.51498144182842 -0.776520258566076 -3.97080067645313 -0.585488057116849 -0.34407924947303 -7.08534692297799 3.13013745369889 -0.311812544064058 2.73501222246138 0 0 0 0 0 12.1683299382414 -16.520223696124 10.0931153423889 38.9947930660317 0 0 0 0 0 32.5753910212824 -3.77157727248177 4.96908533035992 -16.2389164781306 0 0 -5.93534260090789 12.9913440087125 -5.94999789256018 2.20968703985127 2.94367077920289 -1.86363864535001 -37.5557917362205 0 0 -18.0461319589481 -4.53912795608571 6.45947678015224 0 0 0 0 0 0
2.38257932960987 0 0.0354972410947084 0 0.503640927938595 0 0 17.0975337028503 0 -11.8296456923295 -5.20725537067346 -0.765043625560063 -12.231609774984 -3.06865732264679 -0.785405319092887 -4.52400921597339 -0.402277888883427 -0.504045607165026 -4.43064005841192 2.82430974629358 -0.919301374508165 1.20724874240445 0 0 0 0 0 9.84837971662036 -12.3247199194376 7.04792148713113 37.2260233729031 0 0 0 0 0 28.8911885086994 -3.75568070977447 6.88324970906967 -14.2529535995848 0 0 -4.56588890441089 14.6334054374512 -6.07509019293732 7.25538836904975 1.49926311531024 -0.876704154683923 -49.0819306210084 0 0 -25.7759578328861 -4.96688573898438 6.42770009512765 0 0 0 0 0 0
3.16035887897015 0 0.0535634875297546 0 0.183805789757625 0 0 17.2444259047508 0 -11.3809376356836 -5.95824556827947 -2.03869720749446 -10.5692633347621 -2.2244697744063 -0.79016484699638 -4.74392403334744 -0.309064771227425 -0.511556158544488 -2.69975781986462 3.10889688631057 -3.21871974999037 5.13585317091166 0 0 0 0 0 5.71400671363464 -7.56032406804596 5.33593814942293 32.7714149773558 0 0 0 0 0 23.5641045684931 -4.39264461174478 8.23972357058509 -10.3107434342509 0 0 -3.90021683245021 16.4163689396526 -6.07025199150382 15.4649203279542 -0.352965406332339 1.04556868604478 -65.7369371007343 0 0 -24.4430696632761 -4.02742320159934 4.96339086063999 0 0 0 0 0 0
4.02374981939793 0 0.0687682222574949 0 -0.100687051752399 0 0 17.3745313167572 0 -9.74589613656216 -5.32780694470917 -2.84784228049389 -8.29202070784101 -1.58586882291619 -0.83434836842435 -3.81516656968453 -0.229829768147218 -0.73737429138651 -1.07718948059615 3.41353722220844 -4.95080531904918 10.3213712085994 0 0 0 0 0 0.0302298363369068 -1.98908819502472 5.67542706642819 25.2800156843617 0 0 0 0 0 16.4872168465781 -5.7039545714686 8.61619817702148 -5.90875140097478 0 0 -3.02866063025211 18.1139800657816 -5.81882228329547 24.3041984980483 -2.35145538831765 3.82289094483701 -81.5138066494391 0 0 -19.2492247622999 -3.27315819664331 3.33274992857664 0 0 0 0 0 0
4.94536683559418 0 -0.0336523465812206 0 -0.398477809998141 0 0 17.4664932966232 0 -7.33993511002584 -5.61195767906114 -2.63675909499806 -5.94065838965731 -0.808888957645047 -0.654077492183218 -2.11108314451219 -0.0760266856640146 -1.12621759758178 1.17341333443631 5.79210523536597 -8.98529831638205 15.0451752885835 0 0 0 0 0 -4.5243769500168 2.78092037225754 7.05553925225033 17.2774655244512 0 0 0 0 0 9.36727956112471 -6.21753905900381 7.7828085934462 -2.77947141787288 0 0 -1.35016918486861 20.1762755383275 -4.9881118028365 30.6718136832852 -3.76318067783506 5.75428751180264 -90.7932675048726 0 0 -13.3585431528552 -2.41928619106449 2.38497045313271 0 0 0 0 0 0
5.83161100894213 0 -0.200217407941818 0 -0.744953140072231 0 0 17.5255831003189 0 -5.26159867850695 -6.55553485733414 -1.68263539506477 -3.78840193295238 -0.333112746712433 -0.501333177757911 0.0690274291223294 0.0316371951082497 -1.1564730844803 2.8215494541564 7.43899593782677 -12.1341121528193 22.539431308198 0 0 0 0 0 -7.25876037860588 6.91430468714243 8.99997458560297 10.8466511755875 0 0 0 0 0 3.79793718011987 -6.95507548983536 5.89294386502169 -1.43489286430374 0 0 1.00825756944232 22.8235665847925 -3.80695030340296 34.8820296841881 -4.51659226643013 6.67500561321315 -93.2884927030292 0 0 -7.23096459853241 -1.31339814942761 2.16106761585336 0 0 0 0 0 0
6.5975173830986 0 -0.377821647003293 0 -1.13436754691916 0 0 17.5625814437866 0 -4.10705759323944 -7.38008291834177 -0.602436974299014 -2.66257541472464 -0.170675434163947 -0.422604048655935 1.93519872423681 0.103500376718573 -0.773310167177366 4.78158188613008 9.95192068506561 -14.9875794071045 30.6754655626053 0 0 0 0 0 -8.65446197366381 10.9757430309655 11.4162904539401 6.35829438846433 0 0 0 0 0 0.101943899409497 -7.64771878661038 3.77335854244055 -0.84288072182504 0 0 3.07250782946664 24.8157388665811 -2.59952731476697 38.0562776842466 -4.88842434970842 6.79999644112736 -88.0523535720815 0 0 -1.16995634433773 0.1839869981071 2.54440048743476 0 0 0 0 0 0
7.2321200504899 0 -0.519425058877096 0 -1.51448009021389 0 0 17.5638329744339 0 -4.11198938278088 -7.20374264722547 0.0224730559412552 -1.95370155444504 -0.0102108355989717 -0.385746262506091 2.69369543649832 0.112115260388892 -0.262549350671293 6.56424367355883 13.446201739948 -18.1120471776542 37.1978727482389 0 0 0 0 0 -8.62163076138947 14.5751624032302 14.0731532761357 1.08979243384697 0 0 0 0 0 -2.26427226766697 -9.33689835249567 2.41594342217581 0.00209371374008925 0 0 4.55971739643011 26.4353821121145 -1.54249231719516 41.2916792508139 -4.73383750532133 6.82356058518017 -77.1494318830169 0 0 4.18675290420455 1.80197948999116 3.83195155939821 0 0 0 0 0 0
7.7672140866518 0 -0.606909789331257 0 -1.8562685543178 0 0 17.5100705981255 0 -5.00311662187827 -6.46944862370523 0.132699866774901 -1.81492559874148 0.714738786215605 -0.821588943448622 3.39792701942356 0.39509670582413 0.282008688403772 7.61060315061078 15.976224341104 -19.7912372638057 42.8718918917815 0 0 0 0 0 -9.21709236673683 18.3195791346463 16.1768744991226 -5.28778824563453E-05 0 0 0 0 0 -3.13982571962902 -10.4301495273526 1.85266054789717 0.00100471388582918 0 0 6.65752268611519 26.9365119101456 -0.535771624653845 44.8093910696439 -3.60015059295082 7.26939733307625 -64.2967712236696 0 0 9.08327260341872 3.31961856276238 5.80785898406505 0 0 0 0 0 0
8.32789662331343 0 -0.68117358610034 0 -2.15362359106986 0 0 17.4139562368393 0 -5.59502534859389 -5.62300247180402 0.0349142379019719 -2.4477544965263 1.5140897496165 -1.52136171925097 4.03680308906084 0.664148783930483 0.466552557912354 8.10356411423748 18.0339729504275 -20.6920161488129 47.8962575924184 0 0 0 0 0 -9.93902707433576 21.0041612784501 17.1612237179471 -2.63425959675395E-05 0 0 0 0 0 -4.46440707926934 -11.086767605455 1.51086688052939 0.00108796828058445 0 0 9.17693614373643 26.8187777799504 0.555004518037427 46.6042391528701 -2.33482497956784 7.45725642431642 -52.4543740897426 0 0 11.6265196584583 4.10801832705455 6.67068568605722 0 0 0 0 0 0
8.96483940929174 0 -0.772730999067426 0 -2.39339380514869 0 0 17.3047803044319 0 -5.717267473684 -4.53306716940468 -0.0472574708485229 -3.06546934526806 1.75944108191681 -2.00692119503707 4.12063436055979 0.753573718694623 0.372092643857214 8.20554292623143 18.9537738370947 -21.0438242286299 53.6430660619458 0 0 0 0 0 -10.5921676761437 22.0656567018849 16.873960182607 -3.04264794745245E-05 0 0 0 0 0 -6.51612882169444 -12.0910968147438 1.08780708522039 0.00127941024126943 0 0 11.5050000993198 26.6655042643994 1.5780850195041 45.930209792018 -1.636128413609 7.00249171962443 -42.3375217967818 0 0 11.4450884188768 4.19001644955046 6.19072522018642 0 0 0 0 0 0
9.65174359083176 0 -0.885137199936435 0 -2.54788101888727 0 0 17.1913717865944 0 -5.67448163501508 -2.92089840835691 -0.0777102603671419 -3.57917759327711 1.33873344406907 -2.2525853808591 3.56854637058425 0.705592764692251 0.308703517305453 8.39620303565449 19.1632524906935 -20.9619953613025 59.293083920745 0 0 0 0 0 -10.8533976941886 22.0004668778419 15.8875246241146 -2.95072488933732E-05 0 0 0 0 0 -8.93839430616247 -13.359954574657 0.682898796992657 0.00129556117488588 0 0 13.2108637394957 26.1365898441487 2.29291411124553 43.9157391872517 -1.55131413148179 5.91585501973758 -34.7185653059431 0 0 9.43074142769717 3.72888143185256 4.97287257205226 0 0 0 0 0 0
10.3530568063259 0 -1.01418394492939 0 -2.62079838329289 0 0 17.0783117890358 0 -5.79301347727317 -1.37835730287531 -0.0883313336382083 -4.17738444583792 0.975819398788754 -2.47449363230694 2.48725743771696 0.575233125895483 0.321082341292578 8.78950914560451 18.611741196071 -20.201985638366 63.786207753022 0 0 0 0 0 -11.0097109686233 21.50679090046 14.6398498895475 -0.00100026794711148 0 0 0 0 0 -10.3254768808013 -13.3754324527232 0.13890899867024 -1.81130981882673 0 0 14.8234013909361 24.3131855957914 2.32974899622754 41.364787829794 -1.51281402098242 4.77193648708476 -29.2151198916378 0 0 6.53907168435879 2.87764639891025 3.48128968273371 0 0 0 0 0 0
11.0711889326572 0 -1.15171939646825 0 -2.60601862606687 0 0 16.952903175354 0 -6.0356316804156 0.279258767472065 -0.199302050822198 -4.96011068199251 0.734371336844489 -2.6201328524259 1.23022143292949 0.419247327921414 0.330146749055191 9.35503256516987 17.5460477126142 -18.9908404535956 66.6860875085559 0 0 0 0 0 -11.5090824814847 20.4364239385272 13.1660791016342 0.744354122469695 0 0 0 0 0 -10.5082023595751 -12.4478903424968 -0.368542159476997 -6.04742686612766 0 0 16.3187497201145 21.2105565250254 2.04059866844447 38.7463416063877 -1.36062799880868 3.6005534300991 -25.6275220489536 0 0 3.50838185283741 1.8291987185564 2.05698634186737 0 0 0 0 0 0
